<svg xmlns="http://www.w3.org/2000/svg" viewBox="0 0 108 112" fill="none">
  <path d="M14 92 C 1 88 1 71 13 66 C 13 77 15 85 19 91 C 17 92 15 92 14 92 Z" fill="#c8d400"/>
  <g stroke="#c8d400" stroke-width="6" stroke-linecap="round" stroke-linejoin="round" fill="none">
    <rect x="9" y="8" width="22" height="96" rx="11"/>
    <line x1="9" y1="46" x2="31" y2="46"/>
    <path d="M20 56 v8 a5 5 0 0 0 5 5 h1"/>
  </g>
  <g stroke="#7cc242" stroke-width="6" stroke-linecap="round" stroke-linejoin="round" fill="none">
    <rect x="43" y="8" width="22" height="96" rx="11"/>
    <line x1="43" y1="46" x2="65" y2="46"/>
    <path d="M54 56 v8 a5 5 0 0 0 5 5 h1"/>
  </g>
  <g stroke="#159b4e" stroke-width="6" stroke-linecap="round" stroke-linejoin="round" fill="none">
    <rect x="77" y="8" width="22" height="96" rx="11"/>
    <line x1="77" y1="46" x2="99" y2="46"/>
    <path d="M88 56 v8 a5 5 0 0 0 5 5 h1"/>
  </g>
</svg>
